<svg width="39" height="38" viewBox="0 0 39 38" fill="none" xmlns="http://www.w3.org/2000/svg">
<path fill-rule="evenodd" clip-rule="evenodd" d="M30.4505 9.70693C31.1255 12.6684 32.8052 15.6909 34.9692 17.8225C36.4042 19.236 37.4889 21.0425 38.0365 23.1325C39.6575 29.3205 35.9553 35.6511 29.7672 37.2721C27.6763 37.8199 25.569 37.7599 23.6327 37.2015C20.9605 36.4309 17.8855 36.4243 15.2091 37.1801C15.1372 37.2004 15.065 37.22 14.9925 37.239C8.80445 38.8601 2.4739 35.1579 0.85282 28.9698C-0.199467 24.953 0.991317 20.8761 3.64905 18.0663C5.68464 15.9142 7.21476 12.9458 7.78823 10.0396C8.62085 5.82003 11.781 2.23276 16.2207 1.0697C22.4087 -0.55138 28.7393 3.15088 30.3604 9.33894C30.3925 9.46156 30.4225 9.58424 30.4505 9.70693Z" fill="#FAD556"/>
</svg>
