<svg width="100%" height="100%" viewBox="0 0 36 38" fill="none" xmlns="http://www.w3.org/2000/svg">
<path d="M17.0819 1.12601C17.4294 0.321264 18.5706 0.321264 18.9181 1.12601L21.2578 6.54436C21.4967 7.09763 22.1671 7.31544 22.6856 7.00827L27.7633 4.00002C28.5175 3.55322 29.4407 4.22395 29.2488 5.07926L27.9569 10.8381C27.825 11.4261 28.2393 11.9964 28.8393 12.0526L34.7155 12.6035C35.5882 12.6853 35.9408 13.7706 35.2829 14.3498L30.8527 18.2494C30.4004 18.6476 30.4004 19.3524 30.8527 19.7506L35.2829 23.6502C35.9408 24.2294 35.5882 25.3147 34.7155 25.3965L28.8393 25.9474C28.2393 26.0036 27.825 26.5739 27.9569 27.1619L29.2488 32.9207C29.4407 33.7761 28.5175 34.4468 27.7633 34L22.6856 30.9917C22.1671 30.6846 21.4967 30.9024 21.2578 31.4556L18.9181 36.874C18.5706 37.6787 17.4294 37.6787 17.0819 36.874L14.7422 31.4556C14.5033 30.9024 13.8329 30.6846 13.3144 30.9917L8.23666 34C7.4825 34.4468 6.55933 33.7761 6.75121 32.9207L8.04312 27.1619C8.17504 26.5739 7.76072 26.0036 7.16071 25.9474L1.28452 25.3965C0.411777 25.3147 0.0591569 24.2294 0.717131 23.6502L5.14726 19.7506C5.59962 19.3524 5.59962 18.6476 5.14726 18.2494L0.717131 14.3498C0.0591569 13.7706 0.411778 12.6853 1.28452 12.6035L7.16071 12.0526C7.76072 11.9964 8.17504 11.4261 8.04312 10.8381L6.75121 5.07926C6.55933 4.22395 7.4825 3.55322 8.23666 4.00002L13.3144 7.00827C13.8329 7.31544 14.5033 7.09763 14.7422 6.54436L17.0819 1.12601Z" fill="#FF6060"/>
</svg>
