<svg width="100%" height="100%" viewBox="0 0 30 30" fill="none" xmlns="http://www.w3.org/2000/svg">
<g clip-path="url(#clip0_473_255)">
<path d="M25.6907 3.30481H23.7375C23.5197 3.30481 23.3431 3.51938 23.3431 3.78296V5.87127C23.3431 7.46115 22.2811 8.7486 20.97 8.7486C19.6602 8.7486 18.5968 7.45946 18.5968 5.87127V3.78296C18.5968 3.5177 18.4203 3.30481 18.2024 3.30481H11.7363C11.5185 3.30481 11.342 3.51938 11.342 3.78296V5.90844C11.342 7.47636 10.2942 8.7486 9.00014 8.7486C7.70749 8.7486 6.65828 7.47805 6.65828 5.90844V3.78296C6.65828 3.5177 6.48175 3.30481 6.26394 3.30481H4.31073C1.92901 3.30481 0 5.48942 0 8.18429V25.1222C0 27.8171 1.92901 30.0017 4.30931 30.0017H25.6907C28.071 30.0017 30 27.8171 30 25.1222V8.18429C30 5.48942 28.071 3.30481 25.6907 3.30481ZM27.6553 24.9803C27.6553 26.3539 26.6716 27.4657 25.4586 27.4657H4.54136C3.32843 27.4657 2.34471 26.3522 2.34471 24.9803V13.9018C2.34471 12.5282 3.32843 11.4164 4.54136 11.4164H25.4586C26.6716 11.4164 27.6553 12.5299 27.6553 13.9018V24.9803Z" fill="#D9D9D9"/>
<path d="M9.04423 0H8.86628C8.00141 0 7.30029 0.832091 7.30029 1.85853V5.91349C7.30029 6.93993 8.00141 7.77202 8.86628 7.77202H9.04423C9.9091 7.77202 10.6102 6.93993 10.6102 5.91349V1.85853C10.6102 0.832091 9.9091 0 9.04423 0Z" fill="#D9D9D9"/>
<path d="M21.0027 0H20.8248C19.9599 0 19.2588 0.832091 19.2588 1.85853V5.91349C19.2588 6.93993 19.9599 7.77202 20.8248 7.77202H21.0027C21.8676 7.77202 22.5687 6.93993 22.5687 5.91349V1.85853C22.5687 0.832091 21.8676 0 21.0027 0Z" fill="#D9D9D9"/>
<path d="M29.1458 9.79956H0.531006V14.0235H29.1458V9.79956Z" fill="#D9D9D9"/>
</g>
<defs>
<clipPath id="clip0_473_255">
<rect width="30" height="30" fill="white"/>
</clipPath>
</defs>
</svg>
