<svg width="100%" height="100%" viewBox="0 0 32 29" fill="none" xmlns="http://www.w3.org/2000/svg">
<path fill-rule="evenodd" clip-rule="evenodd" d="M1 7C1 3.68629 3.68629 1 7 1H25C28.3137 1 31 3.68629 31 7V16C31 19.3137 28.3137 22 25 22H14.1545L14.5002 28.3071C14.5045 28.384 14.4082 28.4218 14.3589 28.3627L9.05254 22H7C3.68629 22 1 19.3137 1 16V7ZM8.5 13C9.32843 13 10 12.3284 10 11.5C10 10.6716 9.32843 10 8.5 10C7.67157 10 7 10.6716 7 11.5C7 12.3284 7.67157 13 8.5 13ZM18 11.5C18 12.3284 17.3284 13 16.5 13C15.6716 13 15 12.3284 15 11.5C15 10.6716 15.6716 10 16.5 10C17.3284 10 18 10.6716 18 11.5ZM24.5 13C25.3284 13 26 12.3284 26 11.5C26 10.6716 25.3284 10 24.5 10C23.6716 10 23 10.6716 23 11.5C23 12.3284 23.6716 13 24.5 13Z" fill="#D9D9D9"/>
<path d="M14.1545 22V21.5H13.6263L13.6552 22.0274L14.1545 22ZM14.5002 28.3071L14.9995 28.2797V28.2797L14.5002 28.3071ZM14.3589 28.3627L14.7429 28.0424L14.7429 28.0424L14.3589 28.3627ZM9.05254 22L9.43652 21.6798L9.28661 21.5H9.05254V22ZM7 0.5C3.41015 0.5 0.5 3.41015 0.5 7H1.5C1.5 3.96243 3.96243 1.5 7 1.5V0.5ZM25 0.5H7V1.5H25V0.5ZM31.5 7C31.5 3.41015 28.5899 0.5 25 0.5V1.5C28.0376 1.5 30.5 3.96243 30.5 7H31.5ZM31.5 16V7H30.5V16H31.5ZM25 22.5C28.5899 22.5 31.5 19.5899 31.5 16H30.5C30.5 19.0376 28.0376 21.5 25 21.5V22.5ZM14.1545 22.5H25V21.5H14.1545V22.5ZM14.9995 28.2797L14.6537 21.9726L13.6552 22.0274L14.001 28.3344L14.9995 28.2797ZM13.9749 28.6829C14.3325 29.1117 15.0301 28.8371 14.9995 28.2797L14.001 28.3344C13.9789 27.9308 14.484 27.7319 14.7429 28.0424L13.9749 28.6829ZM8.66855 22.3202L13.9749 28.6829L14.7429 28.0424L9.43652 21.6798L8.66855 22.3202ZM7 22.5H9.05254V21.5H7V22.5ZM0.5 16C0.5 19.5898 3.41015 22.5 7 22.5V21.5C3.96243 21.5 1.5 19.0376 1.5 16H0.5ZM0.5 7V16H1.5V7H0.5ZM9.5 11.5C9.5 12.0523 9.05229 12.5 8.5 12.5V13.5C9.60457 13.5 10.5 12.6046 10.5 11.5H9.5ZM8.5 10.5C9.05229 10.5 9.5 10.9477 9.5 11.5H10.5C10.5 10.3954 9.60457 9.5 8.5 9.5V10.5ZM7.5 11.5C7.5 10.9477 7.94772 10.5 8.5 10.5V9.5C7.39543 9.5 6.5 10.3954 6.5 11.5H7.5ZM8.5 12.5C7.94772 12.5 7.5 12.0523 7.5 11.5H6.5C6.5 12.6046 7.39543 13.5 8.5 13.5V12.5ZM16.5 13.5C17.6046 13.5 18.5 12.6046 18.5 11.5H17.5C17.5 12.0523 17.0523 12.5 16.5 12.5V13.5ZM14.5 11.5C14.5 12.6046 15.3954 13.5 16.5 13.5V12.5C15.9477 12.5 15.5 12.0523 15.5 11.5H14.5ZM16.5 9.5C15.3954 9.5 14.5 10.3954 14.5 11.5H15.5C15.5 10.9477 15.9477 10.5 16.5 10.5V9.5ZM18.5 11.5C18.5 10.3954 17.6046 9.5 16.5 9.5V10.5C17.0523 10.5 17.5 10.9477 17.5 11.5H18.5ZM25.5 11.5C25.5 12.0523 25.0523 12.5 24.5 12.5V13.5C25.6046 13.5 26.5 12.6046 26.5 11.5H25.5ZM24.5 10.5C25.0523 10.5 25.5 10.9477 25.5 11.5H26.5C26.5 10.3954 25.6046 9.5 24.5 9.5V10.5ZM23.5 11.5C23.5 10.9477 23.9477 10.5 24.5 10.5V9.5C23.3954 9.5 22.5 10.3954 22.5 11.5H23.5ZM24.5 12.5C23.9477 12.5 23.5 12.0523 23.5 11.5H22.5C22.5 12.6046 23.3954 13.5 24.5 13.5V12.5Z" fill="#D9D9D9"/>
</svg>
