<svg width="100%" height="100%" viewBox="0 0 34 36" fill="none" xmlns="http://www.w3.org/2000/svg">
<mask id="path-1-inside-1_473_260" fill="white">
<path fill-rule="evenodd" clip-rule="evenodd" d="M22.8001 4.44705C23.9891 3.29313 25.9172 3.29269 27.1067 4.44608L30.2557 7.4995C31.4451 8.65288 31.4456 10.5233 30.2566 11.6772L28.6439 13.2424C28.2476 13.627 27.6049 13.6272 27.2084 13.2427L21.1878 7.40476C20.7913 7.0203 20.7911 6.39682 21.1874 6.01218L22.8001 4.44705ZM19.6878 7.46606L27.1443 14.6963L13.7067 27.7377L13.7073 27.7383L13.6847 27.7441L5.39194 29.7711C4.64746 29.9531 3.97227 29.2984 4.15953 28.5761L6.24533 20.5305L6.25123 20.5088L6.25012 20.5077L19.6878 7.46606Z"/>
</mask>
<path fill-rule="evenodd" clip-rule="evenodd" d="M22.8001 4.44705C23.9891 3.29313 25.9172 3.29269 27.1067 4.44608L30.2557 7.4995C31.4451 8.65288 31.4456 10.5233 30.2566 11.6772L28.6439 13.2424C28.2476 13.627 27.6049 13.6272 27.2084 13.2427L21.1878 7.40476C20.7913 7.0203 20.7911 6.39682 21.1874 6.01218L22.8001 4.44705ZM19.6878 7.46606L27.1443 14.6963L13.7067 27.7377L13.7073 27.7383L13.6847 27.7441L5.39194 29.7711C4.64746 29.9531 3.97227 29.2984 4.15953 28.5761L6.24533 20.5305L6.25123 20.5088L6.25012 20.5077L19.6878 7.46606Z" fill="#D9D9D9"/>
<path d="M27.1067 4.44608L27.322 4.23714L27.1067 4.44608ZM30.2557 7.4995L30.0404 7.70843L30.2557 7.4995ZM30.2566 11.6772L30.0412 11.4684L30.2566 11.6772ZM28.6439 13.2424L28.8593 13.4512L28.6439 13.2424ZM27.2084 13.2427L26.9931 13.4516L27.2084 13.2427ZM21.1878 7.40476L21.403 7.19583L21.1878 7.40476ZM27.1443 14.6963L27.3597 14.9051L27.575 14.6962L27.3596 14.4873L27.1443 14.6963ZM19.6878 7.46606L19.9031 7.25713L19.6877 7.04829L19.4725 7.25722L19.6878 7.46606ZM13.7067 27.7377L13.4913 27.5289L13.2761 27.7378L13.4914 27.9467L13.7067 27.7377ZM13.7073 27.7383L13.7849 28.0239L14.2975 27.8929L13.9225 27.5293L13.7073 27.7383ZM13.6847 27.7441L13.7591 28.0305L13.7622 28.0297L13.6847 27.7441ZM5.39194 29.7711L5.46634 30.0575L5.39194 29.7711ZM4.15953 28.5761L3.8642 28.504L4.15953 28.5761ZM6.24533 20.5305L5.95081 20.4554L5.95001 20.4585L6.24533 20.5305ZM6.25123 20.5088L6.54573 20.5839L6.59023 20.4198L6.46651 20.2998L6.25123 20.5088ZM6.25012 20.5077L6.03474 20.2988L5.81946 20.5078L6.03483 20.7166L6.25012 20.5077ZM27.322 4.23714C26.0135 2.96842 23.8926 2.9689 22.5847 4.23821L23.0155 4.65588C24.0856 3.61736 25.8209 3.61697 26.8914 4.65501L27.322 4.23714ZM30.4709 7.29056L27.322 4.23714L26.8914 4.65501L30.0404 7.70843L30.4709 7.29056ZM30.472 11.8861C31.7798 10.6168 31.7794 8.55928 30.4709 7.29056L30.0404 7.70843C31.1109 8.74648 31.1113 10.4299 30.0412 11.4684L30.472 11.8861ZM28.8593 13.4512L30.472 11.8861L30.0412 11.4684L28.4286 13.0335L28.8593 13.4512ZM26.9931 13.4516C27.5086 13.9514 28.3441 13.9512 28.8593 13.4512L28.4286 13.0335C28.1511 13.3028 27.7012 13.3029 27.4237 13.0338L26.9931 13.4516ZM20.9725 7.6137L26.9931 13.4516L27.4237 13.0338L21.403 7.19583L20.9725 7.6137ZM20.9721 5.80334C20.4569 6.30337 20.457 7.1139 20.9725 7.6137L21.403 7.19583C21.1255 6.9267 21.1254 6.49027 21.4028 6.22102L20.9721 5.80334ZM22.5847 4.23821L20.9721 5.80334L21.4028 6.22102L23.0155 4.65588L22.5847 4.23821ZM27.3596 14.4873L19.9031 7.25713L19.4726 7.675L26.929 14.9052L27.3596 14.4873ZM13.9221 27.9466L27.3597 14.9051L26.9289 14.4874L13.4913 27.5289L13.9221 27.9466ZM13.9225 27.5293L13.922 27.5288L13.4914 27.9467L13.492 27.9472L13.9225 27.5293ZM13.7622 28.0297L13.7849 28.0239L13.6297 27.4526L13.6071 27.4584L13.7622 28.0297ZM5.46634 30.0575L13.7591 28.0305L13.6103 27.4576L5.31754 29.4846L5.46634 30.0575ZM3.8642 28.504C3.62078 29.443 4.49852 30.2941 5.46634 30.0575L5.31754 29.4846C4.7964 29.612 4.32377 29.1537 4.45485 28.6481L3.8642 28.504ZM5.95001 20.4585L3.8642 28.504L4.45485 28.6481L6.54066 20.6026L5.95001 20.4585ZM5.95673 20.4336L5.95083 20.4554L6.53984 20.6056L6.54573 20.5839L5.95673 20.4336ZM6.03483 20.7166L6.03595 20.7177L6.46651 20.2998L6.4654 20.2987L6.03483 20.7166ZM19.4725 7.25722L6.03474 20.2988L6.46549 20.7165L19.9032 7.6749L19.4725 7.25722Z" fill="#D9D9D9" mask="url(#path-1-inside-1_473_260)"/>
<rect width="28" height="2" rx="1" transform="matrix(1 0 0 -1 4.02173 33.0238)" fill="#D9D9D9"/>
</svg>
